<?xml version="1.0" encoding="UTF-8"?>
<svg version="1.1" xmlns="http://www.w3.org/2000/svg" width="545" height="197">
<path d="M0 0 C7.26 0 14.52 0 22 0 C23.94890245 10.47535066 24.21456652 20.37895734 24 31 C26.4849773 27.92073912 28.17281476 24.7904951 29.84765625 21.2109375 C30.37037109 20.10492188 30.89308594 18.99890625 31.43164062 17.859375 C32.23891602 16.13460937 32.23891602 16.13460937 33.0625 14.375 C34.13280422 12.08930871 35.20684105 9.8053604 36.28515625 7.5234375 C36.75832275 6.51200684 37.23148926 5.50057617 37.71899414 4.45849609 C39 2 39 2 41 0 C43.24658203 -0.22705078 43.24658203 -0.22705078 46.0078125 -0.1953125 C46.99394531 -0.18886719 47.98007812 -0.18242188 48.99609375 -0.17578125 C50.54490234 -0.15064453 50.54490234 -0.15064453 52.125 -0.125 C53.16527344 -0.11597656 54.20554687 -0.10695312 55.27734375 -0.09765625 C57.85179092 -0.07403747 60.42578212 -0.04110149 63 0 C62.45780234 7.78701332 61.55183376 15.34629564 60 23 C59.34 23 58.68 23 58 23 C58.309375 23.804375 58.309375 23.804375 58.625 24.625 C59.13415556 27.84965186 58.05252636 29.9157677 57 33 C56.44690657 35.30499702 55.92699516 37.6181643 55.4375 39.9375 C55.18871094 41.10152344 54.93992187 42.26554687 54.68359375 43.46484375 C54.00644544 46.96666787 53.47398051 50.46545961 53 54 C52.34 54 51.68 54 51 54 C51 54.99 51 55.98 51 57 C46.38 57 41.76 57 37 57 C35.90029873 50.40179238 35.90029873 50.40179238 37.328125 46.05078125 C38.14542782 43.55610695 38.82016751 41.0354977 39.5 38.5 C40.63483343 34.32358256 41.7988593 30.15779471 43 26 C42.67 26.66 42.34 27.32 42 28 C41.34 28 40.68 28 40 28 C39.731875 29.03125 39.46375 30.0625 39.1875 31.125 C38.26394683 34.67712758 36.67744185 37.7423593 35 41 C34.49339844 42.01320312 33.98679687 43.02640625 33.46484375 44.0703125 C31.30989583 48.38020833 29.15494792 52.69010417 27 57 C22.38 57 17.76 57 13 57 C11.34891858 47.31365564 10.47785492 37.79602592 10 28 C6.968293 36.26829181 5.59901941 44.48503918 4.4375 53.1875 C4 56 4 56 3 57 C0.46950598 57.07313567 -2.03304837 57.09247527 -4.5625 57.0625 C-5.62887695 57.05573242 -5.62887695 57.05573242 -6.71679688 57.04882812 C-8.47790013 57.03700864 -10.23896036 57.01907263 -12 57 C-12.19398623 51.80919609 -11.54545267 47.50458962 -10.1875 42.5 C-7.53443381 32.43252969 -5.41391 22.32279428 -4 12 C-3.30239488 7.34929919 -2.00215112 4.67168594 0 0 Z " fill="#F5F6FB" transform="translate(341,51)"/>
<path d="M0 0 C1.25683594 -0.00257812 2.51367188 -0.00515625 3.80859375 -0.0078125 C4.46714355 -0.00362305 5.12569336 0.00056641 5.80419922 0.00488281 C7.77699455 0.01543509 9.74986814 0.0040124 11.72265625 -0.0078125 C29.18554612 0.02771729 29.18554612 0.02771729 35.75 4.078125 C39.45394631 8.0065529 41.00311679 10.70919438 41.25 16.140625 C41.05987273 21.0693088 40.19505534 24.59747132 36.8125 28.265625 C29.32247783 34.265625 29.32247783 34.265625 25.8125 34.265625 C26.27140625 35.02746094 26.7303125 35.78929687 27.203125 36.57421875 C35.23355263 50.08760642 35.23355263 50.08760642 36.8125 55.265625 C36.3175 56.255625 36.3175 56.255625 35.8125 57.265625 C29.8725 57.265625 23.9325 57.265625 17.8125 57.265625 C13.8125 49.265625 13.8125 49.265625 13.8125 47.265625 C13.1525 47.265625 12.4925 47.265625 11.8125 47.265625 C11.4825 45.285625 11.1525 43.305625 10.8125 41.265625 C10.1525 41.265625 9.4925 41.265625 8.8125 41.265625 C7.79844743 39.94294773 6.79981742 38.60837669 5.8125 37.265625 C4.8225 36.605625 3.8325 35.945625 2.8125 35.265625 C2.76351562 35.84570312 2.71453125 36.42578125 2.6640625 37.0234375 C2.21405075 41.72528442 1.43546032 45.80248412 -0.1875 50.265625 C-0.52810811 51.93082019 -0.86308396 53.59719966 -1.1875 55.265625 C-1.5175 55.925625 -1.8475 56.585625 -2.1875 57.265625 C-7.7975 57.265625 -13.4075 57.265625 -19.1875 57.265625 C-20.7919123 54.0568004 -19.22481335 51.01101611 -18.3125 47.703125 C-17.12724442 43.39942113 -16.12240255 39.24990677 -15.70703125 34.796875 C-15.2537147 30.12217402 -14.09181535 25.81739043 -12.75 21.328125 C-11.08323129 15.58775696 -9.57894506 9.93015637 -8.64453125 4.015625 C-7.43260121 -0.62492763 -4.06027391 0.00802879 0 0 Z M7.8125 14.265625 C7.8125 15.255625 7.8125 16.245625 7.8125 17.265625 C7.1525 17.265625 6.4925 17.265625 5.8125 17.265625 C5.8125 19.245625 5.8125 21.225625 5.8125 23.265625 C14.06453958 23.68899818 14.06453958 23.68899818 21.8125 21.265625 C23.25173199 18.75567004 23.25173199 18.75567004 23.8125 16.265625 C19.70961801 12.16274301 13.09790366 13.07640918 7.8125 14.265625 Z " fill="#F3F5F9" transform="translate(158.1875,50.734375)"/>
<path d="M0 0 C1.48831242 0.00667405 2.97660807 0.01863442 4.46484375 0.03515625 C5.22345703 0.03966797 5.98207031 0.04417969 6.76367188 0.04882812 C8.64326246 0.06064945 10.52281274 0.07858547 12.40234375 0.09765625 C13.38854059 3.05624676 13.44522019 4.28832508 13.08984375 7.28515625 C12.97189453 8.35830078 12.97189453 8.35830078 12.8515625 9.453125 C12.24182953 13.04259648 11.28538927 16.56547415 10.40234375 20.09765625 C16.34234375 20.09765625 22.28234375 20.09765625 28.40234375 20.09765625 C28.73234375 17.45765625 29.06234375 14.81765625 29.40234375 12.09765625 C30.03340804 10.08613884 30.69608136 8.08401923 31.40234375 6.09765625 C31.68078125 4.70546875 31.68078125 4.70546875 31.96484375 3.28515625 C32.40234375 1.09765625 32.40234375 1.09765625 33.40234375 0.09765625 C36.09889229 0.02446004 38.76925833 0.00523088 41.46484375 0.03515625 C42.22345703 0.03966797 42.98207031 0.04417969 43.76367188 0.04882812 C45.64326246 0.06064945 47.52281274 0.07858547 49.40234375 0.09765625 C50.32148265 3.95021717 50.22849133 6.18460639 49.00390625 9.97265625 C48.28330576 12.51815409 47.87495341 15.04657603 47.46484375 17.66015625 C46.03214855 26.62860258 44.35130759 35.49651172 41.40234375 44.09765625 C41.05219326 45.76087107 40.72037318 47.42800174 40.40234375 49.09765625 C39.74234375 51.73765625 39.08234375 54.37765625 38.40234375 57.09765625 C32.46234375 57.09765625 26.52234375 57.09765625 20.40234375 57.09765625 C21.08442093 49.02640966 21.74753814 41.40726747 25.40234375 34.09765625 C18.80234375 34.09765625 12.20234375 34.09765625 5.40234375 34.09765625 C5.40234375 37.39765625 5.40234375 40.69765625 5.40234375 44.09765625 C4.74609375 47.69921875 4.74609375 47.69921875 3.90234375 50.72265625 C3.62390625 51.74617188 3.34546875 52.7696875 3.05859375 53.82421875 C2.84203125 54.57445312 2.62546875 55.3246875 2.40234375 56.09765625 C-4.07895422 58.6017941 -9.78256761 57.92576226 -16.59765625 57.09765625 C-16.79837564 52.78218928 -16.22677656 50.04827301 -14.59765625 46.09765625 C-13.98436018 43.30383228 -13.54430521 40.48484284 -13.09765625 37.66015625 C-12.29410286 32.60483411 -11.28957968 27.94829158 -9.59765625 23.09765625 C-9.24076366 21.43587511 -8.91029662 19.76832824 -8.59765625 18.09765625 C-7.95350001 15.17574032 -7.27582999 12.26183761 -6.59765625 9.34765625 C-6.41976563 8.56777344 -6.241875 7.78789063 -6.05859375 6.984375 C-4.45913845 0.12104067 -4.45913845 0.12104067 0 0 Z " fill="#F4F5FA" transform="translate(275.59765625,50.90234375)"/>
<path d="M0 0 C3.09667998 2.2364911 3.90725844 3.68699723 5 7.375 C5 11.83668484 3.81998243 13.61602108 1 17 C-1.70879335 18.35439668 -4.00933268 18.06501451 -7 18 C-6.690625 18.78375 -6.38125 19.5675 -6.0625 20.375 C-4.93778609 24.21225922 -4.54498546 27.75947894 -4.24609375 31.73046875 C-4.0634994 34.16302701 -4.0634994 34.16302701 -3 37 C-2.47268504 39.68529409 -1.97205841 42.36751795 -1.5 45.0625 C-1.3654541 45.82530273 -1.2309082 46.58810547 -1.09228516 47.37402344 C-0.25056421 52.25455548 0.40936149 57.10842822 0.8125 62.046875 C0.98210963 64.18825449 0.98210963 64.18825449 1.625 67 C2 69 2 69 1 71 C-1.81256281 71.02684312 -4.62487241 71.04676188 -7.4375 71.0625 C-8.64116211 71.07506836 -8.64116211 71.07506836 -9.86914062 71.08789062 C-11.91295221 71.0965143 -13.95683902 71.0522815 -16 71 C-17.58272601 69.41727399 -17.34735747 67.61965997 -17.5625 65.4375 C-17.64628906 64.61121094 -17.73007812 63.78492187 -17.81640625 62.93359375 C-17.87699219 62.29550781 -17.93757813 61.65742187 -18 61 C-20.62538284 61.14053872 -23.25017427 61.28718947 -25.875 61.4375 C-26.99455078 61.49647461 -26.99455078 61.49647461 -28.13671875 61.55664062 C-32.19986864 61.71573624 -32.19986864 61.71573624 -36 63 C-36.70491267 65.32206525 -37.37212429 67.65593068 -38 70 C-39 71 -39 71 -40.85766602 71.11352539 C-42.04380493 71.10567017 -42.04380493 71.10567017 -43.25390625 71.09765625 C-44.10791016 71.09443359 -44.96191406 71.09121094 -45.84179688 71.08789062 C-46.73962891 71.07951172 -47.63746094 71.07113281 -48.5625 71.0625 C-49.46419922 71.05798828 -50.36589844 71.05347656 -51.29492188 71.04882812 C-53.53001314 71.03700225 -55.76497437 71.0205222 -58 71 C-56.75868861 65.64755637 -54.16363603 61.23282249 -51.32421875 56.5703125 C-47.74328864 50.6235751 -44.36898568 44.56858775 -41 38.5 C-29.14441417 17.14441417 -29.14441417 17.14441417 -26 14 C-22.7421875 13.8046875 -22.7421875 13.8046875 -18.875 13.875 C-16.95300781 13.90207031 -16.95300781 13.90207031 -14.9921875 13.9296875 C-13.51105469 13.96449219 -13.51105469 13.96449219 -12 14 C-12.226875 12.948125 -12.45375 11.89625 -12.6875 10.8125 C-13.03938009 6.51956287 -12.71394035 5.25672842 -10 2 C-6.43821833 -0.8119329 -4.30814181 -1.65697762 0 0 Z M-9 6 C-9 7.65 -9 9.3 -9 11 C-8.01 11.495 -8.01 11.495 -7 12 C-7 10.02 -7 8.04 -7 6 C-7.66 6 -8.32 6 -9 6 Z M0 6 C0 7.65 0 9.3 0 11 C0.33 11 0.66 11 1 11 C1 9.35 1 7.7 1 6 C0.67 6 0.34 6 0 6 Z M-5 12 C-5 12.66 -5 13.32 -5 14 C-4.34 13.67 -3.68 13.34 -3 13 C-3.66 12.67 -4.32 12.34 -5 12 Z M-21 33 C-21.4125 33.845625 -21.825 34.69125 -22.25 35.5625 C-23.50269106 38.02314316 -24.78937861 40.37667651 -26.1875 42.75 C-28.1623561 45.67091397 -28.1623561 45.67091397 -28 48 C-25.36 48 -22.72 48 -20 48 C-17.56407879 43.12815759 -19.38011668 37.85964997 -21 33 Z " fill="#F2F4F8" transform="translate(522,37)"/>
<path d="M0 0 C0.77943466 0.00222061 1.55886932 0.00444122 2.36192322 0.00672913 C3.24276077 0.00680466 4.12359833 0.00688019 5.03112793 0.00695801 C5.98841293 0.01211929 6.94569794 0.01728058 7.93199158 0.02259827 C9.39480812 0.02472069 9.39480812 0.02472069 10.88717651 0.02688599 C14.01542675 0.03250319 17.14360656 0.04505859 20.27183533 0.05775452 C22.38706867 0.0627673 24.50230313 0.06733059 26.61753845 0.07142639 C31.81482829 0.0824782 37.01207678 0.09923305 42.20933533 0.12025452 C43.20933533 4.12025452 43.20933533 4.12025452 40.20933533 14.12025452 C26.84433533 14.61525452 26.84433533 14.61525452 13.20933533 15.12025452 C12.87933533 16.11025452 12.54933533 17.10025452 12.20933533 18.12025452 C11.54933533 18.12025452 10.88933533 18.12025452 10.20933533 18.12025452 C10.20933533 19.11025452 10.20933533 20.10025452 10.20933533 21.12025452 C18.78933533 21.12025452 27.36933533 21.12025452 36.20933533 21.12025452 C36.86933533 22.44025452 37.52933533 23.76025452 38.20933533 25.12025452 C37.21933533 28.09025452 36.22933533 31.06025452 35.20933533 34.12025452 C25.96933533 34.12025452 16.72933533 34.12025452 7.20933533 34.12025452 C6.87933533 37.09025452 6.54933533 40.06025452 6.20933533 43.12025452 C15.44933533 43.12025452 24.68933533 43.12025452 34.20933533 43.12025452 C35.20933533 48.12025452 35.20933533 48.12025452 32.20933533 57.12025452 C16.69933533 57.12025452 1.18933533 57.12025452 -14.79066467 57.12025452 C-16.09269606 53.21416035 -15.09260238 50.41356854 -14.10316467 46.55775452 C-13.72168524 45.01379719 -13.34151807 43.46951515 -12.96253967 41.92494202 C-12.76595764 41.12926819 -12.56937561 40.33359436 -12.36683655 39.5138092 C-11.63824023 36.48704719 -10.98182087 33.44745239 -10.32972717 30.40345764 C-8.79009032 23.2290023 -7.05741921 16.13106829 -5.10316467 9.05775452 C-4.78134216 7.88708435 -4.78134216 7.88708435 -4.45301819 6.69276428 C-2.61645422 0.17571153 -2.61645422 0.17571153 0 0 Z " fill="#F2F3F8" transform="translate(30.790664672851563,50.87974548339844)"/>
<path d="M0 0 C1.18335938 0.185625 2.36671875 0.37125 3.5859375 0.5625 C5.94367788 5.0194296 6.68233297 7.54993545 6.5859375 12.5625 C6.85426389 14.08005801 7.15764105 15.59159308 7.484375 17.09765625 C8.59477424 22.45702722 9.40334375 27.82934442 10.1484375 33.25 C10.27412109 34.14783203 10.39980469 35.04566406 10.52929688 35.97070312 C11.52640258 43.0966156 11.52640258 43.0966156 11.86279297 45.72900391 C12.05710591 48.9270501 12.05710591 48.9270501 13.5859375 51.5625 C13.7109375 54.0625 13.7109375 54.0625 13.5859375 56.5625 C12.5859375 57.5625 12.5859375 57.5625 8.76953125 57.66015625 C7.18747068 57.65348089 5.60542591 57.64151875 4.0234375 57.625 C3.21712891 57.62048828 2.41082031 57.61597656 1.58007812 57.61132812 C-0.41800006 57.59950518 -2.41604033 57.58156914 -4.4140625 57.5625 C-6.73628123 53.78889456 -6.4140625 52.55050589 -6.4140625 47.5625 C-12.0240625 47.5625 -17.6340625 47.5625 -23.4140625 47.5625 C-24.0740625 49.8725 -24.7340625 52.1825 -25.4140625 54.5625 C-26.0740625 55.5525 -26.7340625 56.5425 -27.4140625 57.5625 C-29.29345703 57.90307617 -29.29345703 57.90307617 -31.546875 57.85546875 C-32.35253906 57.84580078 -33.15820312 57.83613281 -33.98828125 57.82617188 C-34.83003906 57.80103516 -35.67179687 57.77589844 -36.5390625 57.75 C-37.81330078 57.72969727 -37.81330078 57.72969727 -39.11328125 57.70898438 C-41.21381087 57.67358219 -43.31401543 57.61977401 -45.4140625 57.5625 C-46.4140625 54.5625 -46.4140625 54.5625 -45.47705078 52.45629883 C-44.98446777 51.65216553 -44.49188477 50.84803223 -43.984375 50.01953125 C-43.44079346 49.1186377 -42.89721191 48.21774414 -42.3371582 47.28955078 C-41.74378662 46.32774902 -41.15041504 45.36594727 -40.5390625 44.375 C-39.3253936 42.3693538 -38.11316097 40.3628378 -36.90234375 38.35546875 C-36.00443115 36.87312744 -36.00443115 36.87312744 -35.08837891 35.36083984 C-33.26162425 32.30772497 -31.50673162 29.22346047 -29.78881836 26.1081543 C-28.73197632 24.19728868 -27.64468801 22.30616201 -26.5546875 20.4140625 C-24.98845241 17.67101142 -23.61224478 14.88383679 -22.2734375 12.0234375 C-16.79563364 1.03465252 -12.30884685 -1.35476778 0 0 Z M-9.4140625 19.5625 C-9.5996875 20.7690625 -9.5996875 20.7690625 -9.7890625 22 C-9.9953125 22.845625 -10.2015625 23.69125 -10.4140625 24.5625 C-11.4040625 25.0575 -11.4040625 25.0575 -12.4140625 25.5625 C-13.53781891 27.40750816 -13.53781891 27.40750816 -14.5390625 29.5625 C-14.89226562 30.284375 -15.24546875 31.00625 -15.609375 31.75 C-16.48169132 33.38431263 -16.48169132 33.38431263 -16.4140625 34.5625 C-13.4440625 34.5625 -10.4740625 34.5625 -7.4140625 34.5625 C-7.33583381 29.39940648 -7.37181075 24.64347726 -8.4140625 19.5625 C-8.7440625 19.5625 -9.0740625 19.5625 -9.4140625 19.5625 Z " fill="#F3F4F8" transform="translate(117.4140625,50.4375)"/>
<path d="M0 0 C0.81662109 0.05865234 1.63324219 0.11730469 2.47460938 0.17773438 C3.31056641 0.20931641 4.14652344 0.24089844 5.0078125 0.2734375 C7.06076443 0.35555558 9.11189835 0.48110842 11.16210938 0.61523438 C14.2316393 11.01070905 16.01972076 21.24993427 16.88085938 32.04492188 C17.14093944 34.42176471 17.58104353 36.61201608 18.16210938 38.92773438 C19.66227134 45.0627251 19.79593873 51.32930505 20.16210938 57.61523438 C14.22210938 57.61523438 8.28210938 57.61523438 2.16210938 57.61523438 C1.16210938 54.61523438 1.16210938 54.61523438 1.16210938 48.61523438 C-4.44789063 48.28523438 -10.05789063 47.95523438 -15.83789062 47.61523438 C-16.49789063 49.92523438 -17.15789062 52.23523438 -17.83789062 54.61523438 C-18.49789063 54.61523438 -19.15789062 54.61523438 -19.83789062 54.61523438 C-20.16789062 55.60523438 -20.49789063 56.59523437 -20.83789062 57.61523438 C-26.77789062 57.61523438 -32.71789062 57.61523438 -38.83789062 57.61523438 C-37.98192021 53.33538228 -37.25859278 51.19346437 -35.17773438 47.55273438 C-34.63503906 46.59705566 -34.09234375 45.64137695 -33.53320312 44.65673828 C-32.953125 43.65304199 -32.37304688 42.6493457 -31.77539062 41.61523438 C-31.18628906 40.58446777 -30.5971875 39.55370117 -29.99023438 38.49169922 C-26.26866338 32.00853483 -22.44856469 25.60315322 -18.47460938 19.27148438 C-16.57003235 16.18052405 -14.82419877 13.02541284 -13.13867188 9.81054688 C-12.70941406 9.08609375 -12.28015625 8.36164062 -11.83789062 7.61523438 C-11.53133545 7.02186279 -11.22478027 6.42849121 -10.90893555 5.81713867 C-7.97991466 0.82398762 -5.73867 -0.16263437 0 0 Z M-2.83789062 21.61523438 C-7.00321273 27.63015911 -7.00321273 27.63015911 -8.83789062 34.61523438 C-5.86789062 34.61523438 -2.89789063 34.61523438 0.16210938 34.61523438 C0.04821063 32.82282775 -0.07936749 31.03128603 -0.21289062 29.24023438 C-0.2825 28.2425 -0.35210937 27.24476562 -0.42382812 26.21679688 C-0.60153026 23.46014558 -0.60153026 23.46014558 -2.83789062 21.61523438 Z " fill="#F3F4F9" transform="translate(440.837890625,50.384765625)"/>
<path d="M0 0 C2.207901 -0.36749268 2.207901 -0.36749268 4.98461914 -0.35644531 C6.02231949 -0.35944641 7.06001984 -0.36244751 8.12916565 -0.36553955 C9.25314255 -0.35319275 10.37711945 -0.34084595 11.53515625 -0.328125 C12.68414902 -0.32625183 13.83314178 -0.32437866 15.01695251 -0.32244873 C17.44891251 -0.3157174 19.88086149 -0.30178169 22.31274414 -0.28125 C26.05039441 -0.25010089 29.78762346 -0.24028179 33.52539062 -0.234375 C35.88281768 -0.22520537 38.24024042 -0.21482972 40.59765625 -0.203125 C41.72365738 -0.19887512 42.84965851 -0.19462524 44.00978088 -0.19024658 C45.04432907 -0.18063904 46.07887726 -0.17103149 47.14477539 -0.16113281 C48.06029678 -0.15430481 48.97581818 -0.14747681 49.91908264 -0.14044189 C52 0 52 0 53 1 C53.28305114 5.81186939 52.80950701 9.52945326 51 14 C48.88074396 16.11925604 44.3803907 15.41831017 41.4375 15.5625 C40.63119141 15.60568359 39.82488281 15.64886719 38.99414062 15.69335938 C36.99631195 15.79975262 34.9981793 15.90040888 33 16 C31.60887262 21.41380407 30.46848248 26.77227631 29.5625 32.2890625 C29 35 29 35 28.03515625 37.84765625 C26.85059567 41.45497846 26.12442489 45.08711367 25.4375 48.8125 C24.13372093 55.86627907 24.13372093 55.86627907 23 57 C20.13732433 57.07325168 17.299281 57.09238205 14.4375 57.0625 C13.63119141 57.05798828 12.82488281 57.05347656 11.99414062 57.04882812 C9.99606244 57.03700518 7.99802217 57.01906914 6 57 C6.65857521 47.06937914 7.63593548 37.41938064 11 28 C11.35015049 26.33678518 11.68197057 24.66965451 12 23 C12.66 20.36 13.32 17.72 14 15 C8.39 15 2.78 15 -3 15 C-4.33495946 12.33008107 -3.77924641 10.9616317 -3.1875 8.0625 C-2.93033203 6.74958984 -2.93033203 6.74958984 -2.66796875 5.41015625 C-2 3 -2 3 0 0 Z " fill="#F5F7FC" transform="translate(208,51)"/>
<path d="M0 0 C1.66611905 -0.042721 3.33382885 -0.04063832 5 0 C7.04698414 2.04698414 6.70045693 6.30411241 7 9 C8.72073669 6.78762426 10.09917388 4.79220712 11.3125 2.25 C11.869375 1.5075 12.42625 0.765 13 0 C16.1875 -0.3125 16.1875 -0.3125 19 0 C19.66 2.97 20.32 5.94 21 9 C21.639375 7.700625 22.27875 6.40125 22.9375 5.0625 C24.875 1.125 24.875 1.125 26 0 C27.66617115 -0.04063832 29.33388095 -0.042721 31 0 C30.49487476 6.22987798 27.67395877 11.45474233 25 17 C24.34 17 23.68 17 23 17 C22.34 19.31 21.68 21.62 21 24 C19.35 24.33 17.7 24.66 16 25 C13 18.5 13 18.5 13 14 C12.62488281 14.71027344 12.24976563 15.42054688 11.86328125 16.15234375 C11.35152344 17.07144531 10.83976563 17.99054688 10.3125 18.9375 C9.81363281 19.85402344 9.31476563 20.77054688 8.80078125 21.71484375 C7 24 7 24 4.29296875 24.81640625 C3.53628906 24.87699219 2.77960938 24.93757813 2 25 C-0.31337072 20.34493156 -0.46389779 15.90656493 -0.6875 10.8125 C-0.73455078 9.99330078 -0.78160156 9.17410156 -0.83007812 8.33007812 C-1.13439019 2.26878039 -1.13439019 2.26878039 0 0 Z " fill="#EEEFF2" transform="translate(129,126)"/>
<path d="M0 0 C1.98 0 3.96 0 6 0 C6.33 1.65 6.66 3.3 7 5 C7.763125 5.0825 8.52625 5.165 9.3125 5.25 C12 6 12 6 13.8125 7.625 C15.7481685 11.496337 15.67495063 14.85628888 14.37890625 18.97265625 C13.4410562 21.00258058 12.59448493 22.42778442 11 24 C7.98928566 24.72839863 5.99245963 25.02871842 3 25 C1.865625 25.04125 0.73125 25.0825 -0.4375 25.125 C-3 25 -3 25 -4 24 C-3.93548847 22.22593293 -3.79816721 20.45427356 -3.625 18.6875 C-3.53476563 17.72199219 -3.44453125 16.75648438 -3.3515625 15.76171875 C-3.0544108 13.4274271 -2.63388813 11.26158392 -2 9 C-2.66 9 -3.32 9 -4 9 C-4 9.66 -4 10.32 -4 11 C-5.65 11.33 -7.3 11.66 -9 12 C-9.12375 12.680625 -9.2475 13.36125 -9.375 14.0625 C-10.09100877 17.4277412 -11.02945125 20.70013425 -12 24 C-13.32 24.33 -14.64 24.66 -16 25 C-18.90901853 19.48817542 -17.36976225 15.19736069 -15.82421875 9.51171875 C-15 7 -15 7 -14 6 C-12 6 -10 6 -8 6 C-6.66018514 5.6937566 -5.32488113 5.36548445 -4 5 C-3.01 5 -2.02 5 -1 5 C-0.67 3.35 -0.34 1.7 0 0 Z M5 11 C5 11.66 5 12.32 5 13 C4.34 13 3.68 13 3 13 C3.33 14.98 3.66 16.96 4 19 C6.75641416 18.50243908 6.75641416 18.50243908 9 17 C9.04063832 15.33382885 9.042721 13.66611905 9 12 C7.68 11.67 6.36 11.34 5 11 Z " fill="#EBECEE" transform="translate(72,126)"/>
<path d="M0 0 C0.66 0.33 1.32 0.66 2 1 C2 2.65 2 4.3 2 6 C2.66 6 3.32 6 4 6 C4.33 6.66 4.66 7.32 5 8 C5.680625 7.484375 6.36125 6.96875 7.0625 6.4375 C10.89147772 4.56374495 12.93334276 4.87037299 17 6 C19 7.5 19 7.5 20 10 C19.96468847 14.72291762 19.03785172 19.40379954 18 24 C13.55522251 25.11119437 9.55553378 25.29390541 5 25 C3 23.5 3 23.5 2 22 C1.01 23.32 0.02 24.64 -1 26 C-6.75 24.375 -6.75 24.375 -9 21 C-8.6562541 18.62815329 -7.98652647 16.45406751 -7.3125 14.15625 C-6.71238183 11.70743004 -6.71238183 11.70743004 -9 9 C-7.625 7 -7.625 7 -6 5 C-5.34 5 -4.68 5 -4 5 C-3.67 4.01 -3.34 3.02 -3 2 C-2.01 1.34 -1.02 0.68 0 0 Z M3 10 C0.93704708 11.10709491 0.93704708 11.10709491 -1 13 C-1.80946422 16.10197397 -1.80946422 16.10197397 -2 19 C-0.12119128 18.95231597 -0.12119128 18.95231597 2 18 C4.26325246 15.02236957 4.26325246 15.02236957 6 12 C5.34 12 4.68 12 4 12 C3.67 11.34 3.34 10.68 3 10 Z M9 17 C8.67 17.66 8.34 18.32 8 19 C8.99 19 9.98 19 11 19 C11 18.34 11 17.68 11 17 C10.34 17 9.68 17 9 17 Z " fill="#E9EAEC" transform="translate(323,126)"/>
<path d="M0 0 C2 1 2 1 3.125 4.0625 C3.41375 5.031875 3.7025 6.00125 4 7 C6.05027772 7.17760442 6.05027772 7.17760442 7.6875 5.9375 C11.10958821 4.55016694 13.47165331 5.10187539 17 6 C19 7.5 19 7.5 20 10 C19.96468847 14.72291762 19.03785172 19.40379954 18 24 C15.0923543 24.82791734 12.45909481 25.16193659 9.4375 25.1875 C8.29087891 25.20876953 8.29087891 25.20876953 7.12109375 25.23046875 C5 25 5 25 2 23 C1.608125 23.515625 1.21625 24.03125 0.8125 24.5625 C-1 26 -1 26 -3.5625 25.875 C-6 25 -6 25 -8 22 C-8.01171875 19.80859375 -8.01171875 19.80859375 -7.6875 17.4375 C-7.58824219 16.65246094 -7.48898437 15.86742187 -7.38671875 15.05859375 C-7 13 -7 13 -6 11 C-6.66 11 -7.32 11 -8 11 C-7.67 9.35 -7.34 7.7 -7 6 C-6.01 5.67 -5.02 5.34 -4 5 C-3.67 4.01 -3.34 3.02 -3 2 C-2.01 1.34 -1.02 0.68 0 0 Z M3 9 C3 9.66 3 10.32 3 11 C2.01 11 1.02 11 0 11 C-0.66 13.64 -1.32 16.28 -2 19 C-0.68 19 0.64 19 2 19 C3.68134288 16.64225405 3.68134288 16.64225405 5 14 C5.66 13.34 6.32 12.68 7 12 C6.01 12 5.02 12 4 12 C3.67 11.01 3.34 10.02 3 9 Z " fill="#E4E5E8" transform="translate(453,126)"/>
<path d="M0 0 C-0.33 4.62 -0.66 9.24 -1 14 C-1.66 14 -2.32 14 -3 14 C-2.6596875 15.051875 -2.6596875 15.051875 -2.3125 16.125 C-1.90467361 19.87700275 -3.13622707 21.79431057 -5 25 C-6.65 24.67 -8.3 24.34 -10 24 C-8.89320388 9.78640777 -8.89320388 9.78640777 -6 4 C-8.50037734 6.17424117 -9.43628586 7.73045798 -10 11 C-10.66 11 -11.32 11 -12 11 C-12.33 12.65 -12.66 14.3 -13 16 C-13.66 16 -14.32 16 -15 16 C-15.433125 17.670625 -15.433125 17.670625 -15.875 19.375 C-17 23 -17 23 -19 25 C-21.625 25.125 -21.625 25.125 -24 25 C-26.22819129 21.27020153 -26.87182138 17.27799461 -27.625 13.0625 C-27.7590625 12.35931641 -27.893125 11.65613281 -28.03125 10.93164062 C-28.7082969 7.24588019 -29.16137372 3.74827151 -29 0 C-27.02 0 -25.04 0 -23 0 C-21.23384882 4.70973649 -20.51405169 9.03083364 -20 14 C-19.59007812 13.15695313 -19.18015625 12.31390625 -18.7578125 11.4453125 C-17.94957031 9.80175781 -17.94957031 9.80175781 -17.125 8.125 C-16.32449219 6.48917969 -16.32449219 6.48917969 -15.5078125 4.8203125 C-14.09487631 2.17746295 -13.17734136 0.49810596 -10.375 -0.6875 C-6.8022034 -1.15760482 -3.55943949 -0.53391592 0 0 Z " fill="#F0F1F3" transform="translate(314,126)"/>
<path d="M0 0 C1.99960012 0.039992 4.00047242 0.04346799 6 0 C5.85848172 2.0836309 5.71162064 4.16689938 5.5625 6.25 C5.48128906 7.41015625 5.40007812 8.5703125 5.31640625 9.765625 C5.06548252 12.33062315 4.7199183 14.54380816 4 17 C3.4740625 18.85625 3.4740625 18.85625 2.9375 20.75 C2.628125 21.8225 2.31875 22.895 2 24 C0.34385343 24.38218767 -1.32457024 24.71395102 -3 25 C-3.33 24.67 -3.66 24.34 -4 24 C-3.83253751 16.55436008 -2.338214 10.01464199 0 3 C-0.66 3 -1.32 3 -2 3 C-2.268125 3.86625 -2.53625 4.7325 -2.8125 5.625 C-3.98768364 8.96499562 -5.32110816 11.88205801 -7 15 C-7.44601562 15.85851562 -7.89203125 16.71703125 -8.3515625 17.6015625 C-8.85429687 18.51679688 -9.35703125 19.43203125 -9.875 20.375 C-10.34679687 21.24898437 -10.81859375 22.12296875 -11.3046875 23.0234375 C-13 25 -13 25 -15.6953125 25.2890625 C-16.45585937 25.19367188 -17.21640625 25.09828125 -18 25 C-20.16393321 19.15738034 -21.58380331 13.43785832 -22.5703125 7.28515625 C-22.89555886 4.98036149 -22.89555886 4.98036149 -24 3 C-23.67 2.01 -23.34 1.02 -23 0 C-21.02 0 -19.04 0 -17 0 C-15.08823529 6.62745098 -15.08823529 6.62745098 -14.4375 9.375 C-14.13705109 11.02927039 -14.13705109 11.02927039 -13 12 C-12.74605469 11.46890625 -12.49210937 10.9378125 -12.23046875 10.390625 C-7.44528844 0.56935605 -7.44528844 0.56935605 -3.9375 -0.8125 C-2 -1 -2 -1 0 0 Z " fill="#F0F1F3" transform="translate(438,126)"/>
<path d="M0 0 C3.67360347 0.68018469 3.67360347 0.68018469 7 -0.0625 C9.75 -0.5 9.75 -0.5 12.75 1.5 C13.17389622 6.69272871 12.85536998 12.37984281 11.75 17.5 C11.09 18.16 10.43 18.82 9.75 19.5 C8.1 19.17 6.45 18.84 4.75 18.5 C4.75 14.87 4.75 11.24 4.75 7.5 C3.76 11.13 2.77 14.76 1.75 18.5 C0.1 18.83 -1.55 19.16 -3.25 19.5 C-5.32717042 16.07877814 -5.32717042 16.07877814 -5 13.625 C-4.7525 12.92375 -4.505 12.2225 -4.25 11.5 C-3.899375 10.4275 -3.54875 9.355 -3.1875 8.25 C-2.878125 7.3425 -2.56875 6.435 -2.25 5.5 C-5.12255066 7.92195448 -5.95838919 10.09742703 -6.9375 13.6875 C-7.18886719 14.58855469 -7.44023437 15.48960937 -7.69921875 16.41796875 C-7.88097656 17.10503906 -8.06273437 17.79210937 -8.25 18.5 C-9.9 18.83 -11.55 19.16 -13.25 19.5 C-14.55574977 15.76665911 -14.0101248 12.72925049 -13.375 8.875 C-13.19195312 7.72773438 -13.00890625 6.58046875 -12.8203125 5.3984375 C-12.25 2.5 -12.25 2.5 -11.25 0.5 C-10.30125 0.520625 -9.3525 0.54125 -8.375 0.5625 C-4.85306235 0.49206125 -3.53516254 -0.54387116 0 0 Z " fill="#ECEDF0" transform="translate(358.25,131.5)"/>
<path d="M0 0 C3.67234182 0.70476639 3.67234182 0.70476639 6.9375 -0.1875 C9.75 -0.5 9.75 -0.5 12.1875 0.875 C14.54956954 4.84327683 13.71144986 8.11669709 12.75 12.5 C12.1474699 14.52024799 11.50679435 16.53233469 10.75 18.5 C9.1 18.83 7.45 19.16 5.75 19.5 C4.45323188 14.88926889 5.03890861 11.16159911 5.75 6.5 C5.42 6.83 5.09 7.16 4.75 7.5 C4.09 7.5 3.43 7.5 2.75 7.5 C3.0903125 8.2734375 3.0903125 8.2734375 3.4375 9.0625 C3.92216589 12.84289392 2.54370047 15.22185775 0.75 18.5 C-1.375 19.5 -1.375 19.5 -3.25 19.5 C-3.58 19.17 -3.91 18.84 -4.25 18.5 C-4.18588312 16.6843265 -4.04902523 14.8709514 -3.875 13.0625 C-3.78476563 12.07378906 -3.69453125 11.08507812 -3.6015625 10.06640625 C-3.25 7.5 -3.25 7.5 -2.25 5.5 C-2.70375 5.995 -3.1575 6.49 -3.625 7 C-5.25 8.5 -5.25 8.5 -7.25 8.5 C-7.58 11.8 -7.91 15.1 -8.25 18.5 C-9.9 18.83 -11.55 19.16 -13.25 19.5 C-14.3671875 17.984375 -14.3671875 17.984375 -15.25 15.5 C-14.74969753 12.79721652 -14.16958415 10.3607765 -13.375 7.75 C-13.17519531 7.05261719 -12.97539062 6.35523438 -12.76953125 5.63671875 C-12.2758892 3.92072495 -11.76464497 2.2098122 -11.25 0.5 C-10.30125 0.520625 -9.3525 0.54125 -8.375 0.5625 C-4.85306235 0.49206125 -3.53516254 -0.54387116 0 0 Z " fill="#EBECEF" transform="translate(241.25,131.5)"/>
<path d="M0 0 C1.65 0 3.3 0 5 0 C6.33332095 2.6666419 5.67102033 4.16680303 5 7 C7.31 7.33 9.62 7.66 12 8 C12.144375 6.865625 12.28875 5.73125 12.4375 4.5625 C13 1 13 1 14 0 C15.66617115 -0.04063832 17.33388095 -0.042721 19 0 C19.33 0.99 19.66 1.98 20 3 C19.34 3 18.68 3 18 3 C18.33 4.98 18.66 6.96 19 9 C18.34 9 17.68 9 17 9 C17.18175781 9.56589844 17.36351563 10.13179687 17.55078125 10.71484375 C18.06254391 13.31815817 17.79225225 14.99121524 17.1875 17.5625 C17.01605469 18.32691406 16.84460938 19.09132812 16.66796875 19.87890625 C16 22 16 22 14 25 C12.35 24.67 10.7 24.34 9 24 C7.74458443 20.23375329 8.62938042 18.62811066 10 15 C7.69 14.67 5.38 14.34 3 14 C2.67 17.3 2.34 20.6 2 24 C0.35 24.33 -1.3 24.66 -3 25 C-5.60509556 20.65817406 -4.79018223 17.38870053 -3.71484375 12.71484375 C-2.58932667 8.440339 -1.34384963 4.21072884 0 0 Z " fill="#EBECEF" transform="translate(17,126)"/>
<path d="M0 0 C1.98 0 3.96 0 6 0 C6 2.64 6 5.28 6 8 C5.34 8 4.68 8 4 8 C4.20625 8.680625 4.4125 9.36125 4.625 10.0625 C5.10432588 13.81721942 4.1694617 16.42664482 3 20 C2.65864073 21.33130115 2.32074044 22.66358148 2 24 C-2.93637624 24.90668135 -7.11435077 25.3153671 -12 24 C-14.0625 22 -14.0625 22 -15 19 C-14.68328849 14.86801967 -13.58533211 11.23227812 -11.8125 7.5 C-9.05426143 5.2173198 -6.50466281 5.18774979 -3 5 C-2.01 5.33 -1.02 5.66 0 6 C-0.185625 5.38125 -0.37125 4.7625 -0.5625 4.125 C-1 2 -1 2 0 0 Z M-8 12 C-8.65772428 15.02934491 -8.65772428 15.02934491 -9 18 C-6.525 18.495 -6.525 18.495 -4 19 C-3.26919734 17.02253397 -2.60578253 15.01927511 -2 13 C-2.33 12.34 -2.66 11.68 -3 11 C-5.9254644 10.7763932 -5.9254644 10.7763932 -8 12 Z " fill="#E9EAEC" transform="translate(201,126)"/>
<path d="M0 0 C2.59983471 2.26437217 2.95772402 3.50325722 3.25 6.9375 C3.02411604 9.7045785 2.63530439 12.29995634 2 15 C1.34 15 0.68 15 0 15 C0 15.66 0 16.32 0 17 C-3.7205836 19.48038907 -5.59796571 19.46337203 -10 19 C-12.74089902 17.3410348 -13.69385026 15.98982154 -14.63671875 12.94140625 C-15.23843609 9.66784311 -15.5829696 7.14690346 -14.04296875 4.1171875 C-9.82323681 -1.16066454 -6.3450298 -1.47295335 0 0 Z M-7 5 C-7 5.66 -7 6.32 -7 7 C-5.68 6.67 -4.36 6.34 -3 6 C-4.32 5.67 -5.64 5.34 -7 5 Z M-8 12 C-4 13 -4 13 -4 13 Z " fill="#E6E7EA" transform="translate(51,132)"/>
<path d="M0 0 C1.98 0 3.96 0 6 0 C6.66 2.31 7.32 4.62 8 7 C9.32 4.69 10.64 2.38 12 0 C13.65 0 15.3 0 17 0 C16.74150673 5.94534522 14.66340744 9.65232834 11.484375 14.6328125 C9.86236306 17.11587384 9.86236306 17.11587384 8.375 20.4375 C6.87110343 23.24021634 5.84637507 24.57681246 3 26 C0.25 25.6875 0.25 25.6875 -2 25 C-3.125 21.25 -3.125 21.25 -2 19 C0.0625 17.875 0.0625 17.875 2 17 C1.85831863 15.56208484 1.71148957 14.1246763 1.5625 12.6875 C1.48128906 11.88699219 1.40007812 11.08648437 1.31640625 10.26171875 C1.04734307 7.83912821 1.04734307 7.83912821 0 5 C-0.03874921 3.33378384 -0.0450286 1.66605828 0 0 Z " fill="#EFF0F3" transform="translate(506,132)"/>
<path d="M0 0 C1.80078125 1.59765625 1.80078125 1.59765625 3 4 C2.63671875 7.453125 2.63671875 7.453125 1.6875 11.25 C1.38199219 12.51328125 1.07648438 13.7765625 0.76171875 15.078125 C0.51035156 16.04234375 0.25898437 17.0065625 0 18 C-4.03462195 19.10771987 -7.83575878 19.62165564 -12 19 C-14.5625 17.25 -14.5625 17.25 -16 15 C-15.9140203 12.2486495 -15.10797145 11.13288794 -13.375 9 C-12.92125 8.34 -12.4675 7.68 -12 7 C-12.32380126 5.66431979 -12.65657551 4.33076989 -13 3 C-9.52229333 -1.69490401 -5.2857029 -1.22703817 0 0 Z M-8 11 C-8.33 11.66 -8.66 12.32 -9 13 C-7.68 12.67 -6.36 12.34 -5 12 C-5.99 11.67 -6.98 11.34 -8 11 Z " fill="#E6E7E9" transform="translate(103,132)"/>
<path d="M0 0 C2.35565478 1.82373274 2.86435649 3.18461484 3.34765625 6.08984375 C3.63927634 10.58378417 3.48686541 12.40078103 0.5625 16 C-0.283125 16.66 -1.12875 17.32 -2 18 C-2.33 18.33 -2.66 18.66 -3 19 C-4.99609375 18.9140625 -4.99609375 18.9140625 -7.4375 18.625 C-8.24058594 18.53476563 -9.04367188 18.44453125 -9.87109375 18.3515625 C-12 18 -12 18 -14 17 C-16.36316713 12.77117461 -16.24028958 9.63041442 -15 5 C-10.35487117 -0.62305069 -7.09072302 -1.6460607 0 0 Z M-7 5 C-8.42944945 7.35438733 -9.08661261 8.48032433 -8.625 11.25 C-8.41875 11.8275 -8.2125 12.405 -8 13 C-6.35 12.67 -4.7 12.34 -3 12 C-2.32041397 9.60280568 -2.32041397 9.60280568 -2 7 C-2.66 6.34 -3.32 5.68 -4 5 C-4.99 5 -5.98 5 -7 5 Z " fill="#E8E9EC" transform="translate(222,132)"/>
<path d="M0 0 C2.42945561 3.64418341 2.0828781 4.92923364 1.625 9.1875 C1.45871094 10.81751953 1.45871094 10.81751953 1.2890625 12.48046875 C1.14597656 13.72763672 1.14597656 13.72763672 1 15 C0.34 15 -0.32 15 -1 15 C-1.33 16.32 -1.66 17.64 -2 19 C-3.65 18.67 -5.3 18.34 -7 18 C-6.88557539 16.39504433 -6.75805306 14.79101881 -6.625 13.1875 C-6.52058594 11.84751953 -6.52058594 11.84751953 -6.4140625 10.48046875 C-6 8 -6 8 -4 5 C-6.02618787 5.64180877 -6.02618787 5.64180877 -8 7 C-8.84368927 9.34024856 -8.84368927 9.34024856 -9.125 12 C-9.81016949 16.81016949 -9.81016949 16.81016949 -12 19 C-14.625 18.625 -14.625 18.625 -17 18 C-16.69012383 15.74963714 -16.37700182 13.49972106 -16.0625 11.25 C-15.88847656 9.99703125 -15.71445312 8.7440625 -15.53515625 7.453125 C-15.13950662 4.90017407 -14.69553578 2.4813709 -14 0 C-3.92395139 -1.42689142 -3.92395139 -1.42689142 0 0 Z " fill="#EBEBEE" transform="translate(400,132)"/>
<path d="M0 0 C1.9375 1.375 1.9375 1.375 3 3 C3 3.99 3 4.98 3 6 C2.01 6.66 1.02 7.32 0 8 C0.66 8.66 1.32 9.32 2 10 C1.8400431 13.03918116 1.12524274 14.801699 -0.5 17.375 C-3.85895831 19.5583229 -6.06566302 19.23880458 -9.9375 18.62109375 C-12 18 -12 18 -14.0625 16.0625 C-15 14 -15 14 -15 12 C-13.68 11.34 -12.36 10.68 -11 10 C-11.66 9.67 -12.32 9.34 -13 9 C-12.63774912 2.60023447 -12.63774912 2.60023447 -9.875 0 C-6.14261699 -1.29822018 -3.80261145 -0.98586223 0 0 Z M-10 11 C-9.67 11.66 -9.34 12.32 -9 13 C-7.35 13 -5.7 13 -4 13 C-6.81509993 10.7226499 -6.81509993 10.7226499 -10 11 Z " fill="#E2E3E5" transform="translate(182,132)"/>
<path d="M0 0 C2 1 2 1 2.66796875 2.77734375 C2.83941406 3.49019531 3.01085937 4.20304688 3.1875 4.9375 C3.45626953 6.00291016 3.45626953 6.00291016 3.73046875 7.08984375 C4 9 4 9 3 11 C2.01 11 1.02 11 0 11 C-0.66 13.64 -1.32 16.28 -2 19 C-0.35 18.67 1.3 18.34 3 18 C1.25 23.75 1.25 23.75 -1 26 C-3.5 25.8125 -3.5 25.8125 -6 25 C-8.20842803 21.68735796 -8.19725756 21.16548604 -7.6875 17.4375 C-7.58824219 16.65246094 -7.48898437 15.86742187 -7.38671875 15.05859375 C-7 13 -7 13 -6 11 C-6.66 11 -7.32 11 -8 11 C-7.67 9.35 -7.34 7.7 -7 6 C-6.01 5.67 -5.02 5.34 -4 5 C-3.67 4.01 -3.34 3.02 -3 2 C-2.01 1.34 -1.02 0.68 0 0 Z " fill="#F0F1F3" transform="translate(453,126)"/>
<path d="M0 0 C1.5 1.3125 1.5 1.3125 3 3 C3 3.99 3 4.98 3 6 C3.3062434 7.33981486 3.63451555 8.67511887 4 10 C2.68 10.33 1.36 10.66 0 11 C-0.33 13.64 -0.66 16.28 -1 19 C-0.34 19 0.32 19 1 19 C1.6875 20.8125 1.6875 20.8125 2 23 C0.8125 24.8125 0.8125 24.8125 -1 26 C-3.32488881 25.7181953 -4.90892835 25.04553582 -7 24 C-7.79534234 19.58946522 -8.29146648 16.30488826 -7 12 C-6.96154557 10.00036972 -6.95455719 7.99948367 -7 6 C-6.01 5.67 -5.02 5.34 -4 5 C-3.67 4.01 -3.34 3.02 -3 2 C-2.01 1.34 -1.02 0.68 0 0 Z " fill="#EDEFF1" transform="translate(502,126)"/>
<path d="M0 0 C1.98 0 3.96 0 6 0 C6.09001982 3.24071366 5.80258556 5.87883393 5 9 C4.82078507 10.33170476 4.65542605 11.66530966 4.5 13 C3.96323493 17.45927904 3.136582 21.0117136 1 25 C-0.65 24.67 -2.3 24.34 -4 24 C-5.2565223 20.2304331 -4.49643521 17.45399018 -3.6875 13.6875 C-3.55666016 13.03587891 -3.42582031 12.38425781 -3.29101562 11.71289062 C-2.4592504 7.69871934 -1.37102121 3.86160996 0 0 Z " fill="#EEEFF2" transform="translate(478,126)"/>
<path d="M0 0 C1.65 0 3.3 0 5 0 C8.16332506 6.32665012 3.59216032 17.52120928 2 24 C0.35 24.33 -1.3 24.66 -3 25 C-5.65827727 20.56953789 -4.73980597 17.133026 -3.64453125 12.36328125 C-2.94872433 9.81198922 -2.04113726 7.42932027 -1 5 C-0.63128912 3.34080104 -0.28718326 1.6752357 0 0 Z " fill="#F3F4F7" transform="translate(488,126)"/>
<path d="M0 0 C1.98 0.66 3.96 1.32 6 2 C4.69951304 9.77232205 2.99548103 17.37726245 1 25 C-0.65 25.33 -2.3 25.66 -4 26 C-5.125 24.375 -5.125 24.375 -6 22 C-5.39421747 19.98072489 -4.70905938 17.98536627 -4 16 C-3.45887 12.94179561 -3.00060402 9.87923889 -2.5625 6.8046875 C-2.03860543 4.19249099 -1.31823486 2.29592571 0 0 Z " fill="#EEEFF1" transform="translate(378,125)"/>
<path d="M0 0 C1.98 0 3.96 0 6 0 C6.12785251 6.52047798 5.02795908 12.01981409 3.4375 18.3125 C3.16808594 19.38113281 2.89867188 20.44976562 2.62109375 21.55078125 C2.31365234 22.76314453 2.31365234 22.76314453 2 24 C0.35 24.33 -1.3 24.66 -3 25 C-5 22 -5 22 -4.609375 19.43359375 C-4.32578125 18.44488281 -4.0421875 17.45617187 -3.75 16.4375 C-2.25675645 10.98882019 -1.04379711 5.55054466 0 0 Z " fill="#EEEFF1" transform="translate(111,126)"/>
<path d="M0 0 C1.98 0 3.96 0 6 0 C5.34 5.28 4.68 10.56 4 16 C3.34 16 2.68 16 2 16 C2.33 17.98 2.66 19.96 3 22 C2.34 22 1.68 22 1 22 C0.67 22.99 0.34 23.98 0 25 C-1.32 24.67 -2.64 24.34 -4 24 C-4.19401785 18.47049138 -3.6818065 14.32572058 -2 9 C-1.29061447 6.00907721 -0.64079823 3.00629806 0 0 Z " fill="#F3F4F6" transform="translate(162,126)"/>
<path d="M0 0 C1.98 0 3.96 0 6 0 C6.080594 3.5461362 6.02880313 6.60494966 5 10 C4.649375 11.2375 4.29875 12.475 3.9375 13.75 C3.628125 14.8225 3.31875 15.895 3 17 C1.34385343 17.38218767 -0.32457024 17.71395102 -2 18 C-2.33 17.67 -2.66 17.34 -3 17 C-2.86971703 11.11722295 -2.22280043 5.48290774 0 0 Z " fill="#F6F6F9" transform="translate(437,133)"/>
<path d="M0 0 C1.99960012 0.039992 4.00047242 0.04346799 6 0 C5.67 2.31 5.34 4.62 5 7 C3.02 7 1.04 7 -1 7 C-0.67 5.68 -0.34 4.36 0 3 C-0.66 3 -1.32 3 -2 3 C-2 2.34 -2 1.68 -2 1 C-3.32 0.67 -4.64 0.34 -6 0 C-2.25 -1.125 -2.25 -1.125 0 0 Z " fill="#D1D1D2" transform="translate(438,126)"/>
<path d="M0 0 C1.98 0 3.96 0 6 0 C6.125 2.375 6.125 2.375 6 5 C5.34 5.66 4.68 6.32 4 7 C1.875 6.625 1.875 6.625 0 6 C-1.125 2.25 -1.125 2.25 0 0 Z " fill="#D3D3D4" transform="translate(266,144)"/>
<path d="M0 0 C1.65 0 3.3 0 5 0 C6 2 6 2 5.375 4.5625 C4 7 4 7 1.375 7.8125 C0.59125 7.874375 -0.1925 7.93625 -1 8 C-1.125 2.25 -1.125 2.25 0 0 Z " fill="#E7E7E9" transform="translate(488,126)"/>
<path d="M0 0 C-1.47692308 4.67692308 -1.47692308 4.67692308 -4.125 6.3125 C-5.053125 6.6528125 -5.053125 6.6528125 -6 7 C-5.37162381 3.35541809 -4.14650034 0 0 0 Z " fill="#C2C1BD" transform="translate(516,37)"/>
<path d="M0 0 C1.32 0.33 2.64 0.66 4 1 C3.01 1.495 3.01 1.495 2 2 C1.67 2.99 1.34 3.98 1 5 C0.01 5 -0.98 5 -2 5 C-1.34 3.35 -0.68 1.7 0 0 Z " fill="#FDFCF7" transform="translate(517,36)"/>
</svg>
