<svg width="48" height="48" viewBox="0 0 48 48" fill="none" xmlns="http://www.w3.org/2000/svg">
<path d="M47.5219 14.2844C47.5219 14.2844 47.0531 10.975 45.6094 9.52188C43.7812 7.60938 41.7375 7.6 40.8 7.4875C34.0875 7 24.0094 7 24.0094 7H23.9906C23.9906 7 13.9125 7 7.2 7.4875C6.2625 7.6 4.21875 7.60938 2.39062 9.52188C0.946875 10.975 0.4875 14.2844 0.4875 14.2844C0.4875 14.2844 0 18.175 0 22.0563V25.6937C0 29.575 0.478125 33.4656 0.478125 33.4656C0.478125 33.4656 0.946875 36.775 2.38125 38.2281C4.20937 40.1406 6.60938 40.075 7.67813 40.2812C11.5219 40.6469 24 40.7594 24 40.7594C24 40.7594 34.0875 40.7406 40.8 40.2625C41.7375 40.15 43.7812 40.1406 45.6094 38.2281C47.0531 36.775 47.5219 33.4656 47.5219 33.4656C47.5219 33.4656 48 29.5844 48 25.6937V22.0563C48 18.175 47.5219 14.2844 47.5219 14.2844ZM19.0406 30.1094V16.6187L32.0062 23.3875L19.0406 30.1094Z" fill="white"/>
</svg>
